<?xml version="1.0" encoding="utf-8"?>
<svg viewBox="0 0 150 80" width="150px" height="80px" fill="none" xmlns="http://www.w3.org/2000/svg">
  <path d="M52.7383 48.7038V30.0427C52.7383 22.846 46.8691 16.9883 39.6584 16.9883H20.9608C13.7501 16.9883 7.88086 22.846 7.88086 30.0427V48.7038C7.88086 55.482 12.9954 61.005 19.6193 61.6745L33.37 50.5448H18.5293V45.1891L33.2023 33.2226H19.1162V28.118H42.0061V33.4736L27.3331 45.4402H42.0061V50.7958L28.5069 61.7582H39.6584C46.8691 61.7582 52.7383 55.9004 52.7383 48.7038Z" style="fill: rgb(66, 111, 255);" transform="matrix(1, 0, 0, 1, 2.842170943040401e-14, 1.4210854715202004e-14)"/>
  <path d="M63.8906 25.2715H67.3283C68.8375 25.2715 69.9275 26.192 69.9275 27.7819C69.9275 29.2882 68.8375 30.2924 67.3283 30.2087H64.9806V33.4723H63.8906V25.2715ZM67.1606 29.2045C68.2506 29.2045 68.9214 28.7024 68.9214 27.6983C68.9214 26.6941 68.2506 26.192 67.1606 26.192H64.9806V29.2045H67.1606Z" style="fill: rgb(66, 111, 255);" transform="matrix(1, 0, 0, 1, 2.842170943040401e-14, 1.4210854715202004e-14)"/>
  <path d="M73.5326 27.4473C75.0418 27.4473 76.2995 28.7025 76.2995 30.4598C76.2995 32.2171 75.0418 33.556 73.5326 33.4724C72.0234 33.4724 70.7657 32.2171 70.7657 30.4598C70.6818 28.7862 71.9395 27.4473 73.5326 27.4473ZM73.5326 32.7192C74.5387 32.7192 75.2934 31.8824 75.2934 30.5435C75.2934 29.2046 74.5387 28.3678 73.5326 28.3678H73.4487C72.4426 28.3678 71.688 29.2046 71.688 30.5435C71.688 31.8824 72.4426 32.7192 73.4487 32.7192H73.5326Z" style="fill: rgb(66, 111, 255);" transform="matrix(1, 0, 0, 1, 2.842170943040401e-14, 1.4210854715202004e-14)"/>
  <path d="M80.1556 27.4473C81.4971 27.4473 82.4194 28.2004 82.5033 29.4556H81.4971C81.4133 29.1209 81.3294 28.7862 81.0779 28.6188C80.8264 28.3678 80.5748 28.2841 80.2394 28.2841H80.1556C79.0656 28.2841 78.3948 29.2883 78.3948 30.4598C78.3948 31.6314 78.9817 32.7192 80.1556 32.6355H80.2394C80.5748 32.6355 80.9102 32.5519 81.0779 32.3008C81.3294 32.0498 81.4971 31.7987 81.4971 31.464H82.5033C82.3356 32.7192 81.4133 33.4724 80.1556 33.4724C78.3948 33.4724 77.3887 32.1335 77.3887 30.4598C77.3887 28.7862 78.3948 27.4473 80.1556 27.4473Z" style="fill: rgb(66, 111, 255);" transform="matrix(1, 0, 0, 1, 2.842170943040401e-14, 1.4210854715202004e-14)"/>
  <path d="M86.3607 27.4473C87.7022 27.4473 88.6245 28.2004 88.7083 29.4556H87.7022C87.6183 29.1209 87.5345 28.7862 87.283 28.6188C87.0314 28.3678 86.7799 28.2841 86.4445 28.2841H86.3607C85.2707 28.2841 84.5999 29.2883 84.5999 30.4598C84.5999 31.6314 85.1868 32.7192 86.3607 32.6355H86.4445C86.7799 32.6355 87.1153 32.5519 87.283 32.3008C87.5345 32.0498 87.7022 31.7987 87.7022 31.464H88.7083C88.5407 32.7192 87.6183 33.4724 86.3607 33.4724C84.5999 33.4724 83.5938 32.1335 83.5938 30.4598C83.5938 28.7862 84.5999 27.4473 86.3607 27.4473Z" style="fill: rgb(66, 111, 255);" transform="matrix(1, 0, 0, 1, 2.842170943040401e-14, 1.4210854715202004e-14)"/>
  <path d="M95.3332 27.6152V33.473H94.3271V28.7031L91.4763 33.473H90.1348V27.6152H91.1409V32.3851L94.0755 27.6152H95.3332Z" style="fill: rgb(66, 111, 255);" transform="matrix(1, 0, 0, 1, 2.842170943040401e-14, 1.4210854715202004e-14)"/>
  <path d="M102.376 27.6146V33.4723H101.37V28.7024L98.5193 33.4723H97.1777V27.6146H98.1839V32.4681L101.118 27.6146H102.376ZM98.8546 25.2715C98.9385 25.8573 99.19 26.192 99.6931 26.192C100.196 26.192 100.532 25.8573 100.532 25.2715H101.37C101.37 26.3594 100.699 26.7778 99.6093 26.7778C98.5193 26.7778 97.8485 26.2757 97.8485 25.2715H98.8546Z" style="fill: rgb(66, 111, 255);" transform="matrix(1, 0, 0, 1, 2.842170943040401e-14, 1.4210854715202004e-14)"/>
  <path d="M106.568 27.4473C107.909 27.4473 108.832 28.2004 108.915 29.4556H107.909C107.825 29.1209 107.742 28.7862 107.49 28.6188C107.238 28.3678 106.987 28.2841 106.652 28.2841H106.568C105.478 28.2841 104.807 29.2883 104.807 30.4598C104.807 31.6314 105.394 32.7192 106.568 32.6355H106.652C106.987 32.6355 107.322 32.5519 107.49 32.3008C107.742 32.0498 107.909 31.7987 107.909 31.464H108.915C108.748 32.7192 107.825 33.4724 106.568 33.4724C104.807 33.4724 103.801 32.1335 103.801 30.4598C103.801 28.7862 104.891 27.4473 106.568 27.4473Z" style="fill: rgb(66, 111, 255);" transform="matrix(1, 0, 0, 1, 2.842170943040401e-14, 1.4210854715202004e-14)"/>
  <path d="M112.438 30.6278L111.348 31.632V33.473H110.342V27.6152H111.348V30.4604L114.283 27.6152H115.456L113.109 29.8746L115.624 33.473H114.366L112.438 30.6278Z" style="fill: rgb(66, 111, 255);" transform="matrix(1, 0, 0, 1, 2.842170943040401e-14, 1.4210854715202004e-14)"/>
  <path d="M118.726 27.4473C120.235 27.4473 121.493 28.7025 121.493 30.4598C121.493 32.2171 120.235 33.556 118.726 33.4724C117.217 33.4724 115.959 32.2171 115.959 30.4598C115.959 28.7862 117.217 27.4473 118.726 27.4473ZM118.81 32.7192C119.816 32.7192 120.571 31.8824 120.571 30.5435C120.571 29.2046 119.816 28.3678 118.81 28.3678H118.726C117.72 28.3678 116.965 29.2046 116.965 30.5435C116.965 31.8824 117.72 32.7192 118.726 32.7192H118.81Z" style="fill: rgb(66, 111, 255);" transform="matrix(1, 0, 0, 1, 2.842170943040401e-14, 1.4210854715202004e-14)"/>
  <path d="M125.349 27.4473C126.858 27.4473 127.781 28.5351 127.781 30.0414V30.6272H123.672C123.672 31.9661 124.595 32.7192 125.349 32.7192H125.433C126.104 32.7192 126.607 32.3845 126.775 31.715H127.781C127.529 32.8866 126.607 33.556 125.349 33.556C123.84 33.556 122.582 32.4682 122.666 30.4598C122.582 28.5351 123.924 27.4473 125.349 27.4473ZM126.775 29.874C126.775 28.8699 126.104 28.3678 125.349 28.3678H125.265C124.595 28.3678 123.84 28.7862 123.672 29.874H126.775Z" style="fill: rgb(66, 111, 255);" transform="matrix(1, 0, 0, 1, 2.842170943040401e-14, 1.4210854715202004e-14)"/>
  <path d="M66.1535 37.574C67.6627 37.574 68.9204 38.8293 68.9204 40.5866C68.9204 42.3439 67.6627 43.6828 66.1535 43.5991C64.6442 43.5991 63.3865 42.3439 63.3865 40.5866C63.3027 38.8293 64.6442 37.4903 66.1535 37.574ZM66.2373 42.7623C67.2434 42.7623 67.9981 41.9255 67.9981 40.5866C67.9981 39.2477 67.2434 38.4108 66.2373 38.4108H66.1535C65.1473 38.4108 64.3927 39.2477 64.3927 40.5866C64.3927 41.9255 65.1473 42.7623 66.1535 42.7623H66.2373Z" style="fill: rgb(66, 111, 255);" transform="matrix(1, 0, 0, 1, 2.842170943040401e-14, 1.4210854715202004e-14)"/>
  <path d="M70.3474 37.9923C70.4312 37.4065 70.5989 36.9881 70.8505 36.6534C71.2697 36.1513 71.9405 35.9002 72.8628 35.9002H74.2043C74.6235 35.9002 74.7912 35.8165 74.7912 35.4818V35.3145H75.7135V35.6492C75.7135 36.486 75.3781 36.8207 74.372 36.8207H72.8628C71.5212 36.8207 71.102 37.4902 71.0181 39.0801C71.4374 38.4944 72.2758 37.9923 73.1143 37.9923C74.5397 37.9923 75.7135 39.0801 75.7135 40.7538C75.7135 42.4274 74.5397 43.7663 72.9466 43.7663C71.102 43.7663 70.1797 42.4274 70.1797 40.2517C70.1797 39.2475 70.2635 38.4944 70.3474 37.9923ZM73.0304 42.8458C74.0366 42.8458 74.7074 41.9253 74.7074 40.6701C74.7074 39.4985 74.0366 38.6617 73.0304 38.6617H72.9466C71.9404 38.6617 71.1858 39.4986 71.1858 40.5864C71.1858 41.8416 71.9404 42.8458 73.0304 42.8458Z" style="fill: rgb(66, 111, 255);" transform="matrix(1, 0, 0, 1, 2.842170943040401e-14, 1.4210854715202004e-14)"/>
  <path d="M86.194 42.6772V45.104H85.2717V43.514H77.1387V37.6562H78.1448V42.6772H80.6602V37.6562H81.6663V42.6772H84.1817V37.6562H85.1879V42.6772H86.194Z" style="fill: rgb(66, 111, 255);" transform="matrix(1, 0, 0, 1, 2.842170943040401e-14, 1.4210854715202004e-14)"/>
  <path d="M89.6304 37.5729C91.1396 37.5729 92.0619 38.6607 92.0619 40.167V40.7528H87.9535C87.9535 42.0917 88.8758 42.8448 89.6304 42.8448H89.7142C90.385 42.8448 90.8881 42.5101 91.0558 41.8406H92.0619C91.8104 43.0122 90.8881 43.6816 89.6304 43.6816C88.1212 43.6816 86.8635 42.5938 86.9473 40.5854C86.9473 38.577 88.2889 37.4892 89.6304 37.5729ZM91.1396 39.9159C91.1396 38.9118 90.4688 38.4097 89.7142 38.4097H89.6304C88.9596 38.4097 88.205 38.8281 88.0373 39.9159H91.1396Z" style="fill: rgb(66, 111, 255);" transform="matrix(1, 0, 0, 1, 2.842170943040401e-14, 1.4210854715202004e-14)"/>
  <path d="M96.0032 37.574C97.3448 37.574 98.2671 38.3272 98.3509 39.5824H97.3448C97.2609 39.2477 97.1771 38.9129 96.9256 38.7456C96.674 38.4945 96.4225 38.4108 96.0871 38.4108H96.0032C94.9132 38.4108 94.2425 39.415 94.2425 40.5866C94.2425 41.7581 94.8294 42.846 96.0032 42.7623H96.0871C96.4225 42.7623 96.7579 42.6786 96.9256 42.4276C97.1771 42.1765 97.3448 41.9255 97.3448 41.5908H98.3509C98.1832 42.846 97.2609 43.5991 96.0032 43.5991C94.2425 43.5991 93.2363 42.2602 93.2363 40.5866C93.2363 38.8293 94.2425 37.4903 96.0032 37.574Z" style="fill: rgb(66, 111, 255);" transform="matrix(1, 0, 0, 1, 2.842170943040401e-14, 1.4210854715202004e-14)"/>
  <path d="M103.885 38.4931H101.956V43.514H100.95V38.4931H99.0215V37.6562H103.885V38.4931Z" style="fill: rgb(66, 111, 255);" transform="matrix(1, 0, 0, 1, 2.842170943040401e-14, 1.4210854715202004e-14)"/>
  <path d="M104.975 37.6562H107.742C108.915 37.6562 109.586 38.3257 109.586 39.1625C109.586 39.832 109.167 40.3341 108.496 40.5851C109.083 40.6688 109.754 41.1709 109.754 41.924C109.754 42.8445 108.915 43.5977 107.825 43.5977H104.975V37.6562ZM107.658 40.1667C108.245 40.1667 108.664 39.832 108.664 39.2462C108.664 38.7441 108.245 38.4094 107.574 38.4094H106.065V40.1667H107.658ZM107.574 42.7609C108.328 42.7609 108.748 42.4261 108.748 41.8404C108.748 41.3383 108.328 41.0035 107.658 41.0035H105.981V42.8445H107.574V42.7609Z" style="fill: rgb(66, 111, 255);" transform="matrix(1, 0, 0, 1, 2.842170943040401e-14, 1.4210854715202004e-14)"/>
  <path d="M113.611 37.574C115.12 37.574 116.378 38.8293 116.378 40.5866C116.378 42.3439 115.12 43.6828 113.611 43.5991C112.101 43.5991 110.844 42.3439 110.844 40.5866C110.844 38.8293 112.101 37.4903 113.611 37.574ZM113.695 42.7623C114.701 42.7623 115.455 41.9255 115.455 40.5866C115.455 39.2477 114.701 38.4108 113.695 38.4108H113.611C112.605 38.4108 111.85 39.2477 111.85 40.5866C111.85 41.9255 112.605 42.7623 113.611 42.7623H113.695Z" style="fill: rgb(66, 111, 255);" transform="matrix(1, 0, 0, 1, 2.842170943040401e-14, 1.4210854715202004e-14)"/>
  <path d="M69.4235 50.0417C69.675 50.3764 69.8427 50.7111 69.8427 51.2132C69.8427 52.7195 68.585 53.7237 66.6566 53.7237C64.5604 53.7237 63.3866 52.7195 63.3027 50.8785H64.8958C65.0635 51.799 65.6504 52.3011 66.7404 52.3011C67.7466 52.3011 68.2496 51.8827 68.2496 51.2132C68.2496 50.5438 67.7466 50.209 66.8243 50.209H65.7343V48.7864H66.7404C67.6627 48.7864 68.1658 48.368 68.1658 47.6986C68.1658 47.1128 67.6627 46.6944 66.7404 46.6944C66.2373 46.6944 65.8181 46.8617 65.4827 47.1128C65.2312 47.3638 65.0635 47.6986 64.9796 48.2007H63.3866C63.3866 47.7822 63.5543 47.3638 63.722 46.8617C63.9735 46.4433 64.3089 46.0249 64.812 45.7739C65.315 45.5228 65.902 45.3555 66.6566 45.3555C68.6689 45.3555 69.7589 46.276 69.7589 47.6986C69.7589 48.5354 69.2558 49.2048 68.3335 49.4559C68.7527 49.5396 69.0881 49.7069 69.4235 50.0417Z" style="fill: rgb(66, 111, 255);" transform="matrix(1, 0, 0, 1, 2.842170943040401e-14, 1.4210854715202004e-14)"/>
  <path d="M71.1855 47.6992H72.6948V49.9586H74.9586V47.6992H76.4678V53.557H74.9586V51.1302H72.6948V53.557H71.1855V47.6992Z" style="fill: rgb(66, 111, 255);" transform="matrix(1, 0, 0, 1, 2.842170943040401e-14, 1.4210854715202004e-14)"/>
  <path d="M77.7246 50.6284C77.7246 48.62 78.8985 47.5321 80.24 47.6158C81.0785 47.6158 81.7492 48.0342 82.0008 48.5363V47.6995H83.51V53.5572H82.0008V52.7204C81.6654 53.2225 81.0785 53.6409 80.24 53.6409C79.0661 53.7246 77.7246 52.6367 77.7246 50.6284ZM80.6592 52.4694C81.4138 52.4694 82.0008 51.7999 82.0008 50.6284C82.0008 49.4568 81.4138 48.7874 80.6592 48.7874H80.5754C79.8208 48.7874 79.2338 49.5405 79.2338 50.6284C79.2338 51.6326 79.8208 52.4694 80.5754 52.4694H80.6592Z" style="fill: rgb(66, 111, 255);" transform="matrix(1, 0, 0, 1, 2.842170943040401e-14, 1.4210854715202004e-14)"/>
  <path d="M85.1035 47.6992H86.6966V49.9586H88.9604V47.6992H90.4697V53.557H88.9604V51.1302H86.6966V53.557H85.1035V47.6992Z" style="fill: rgb(66, 111, 255);" transform="matrix(1, 0, 0, 1, 2.842170943040401e-14, 1.4210854715202004e-14)"/>
  <path d="M97.764 47.6992V53.557H96.2548V49.3729L94.0748 53.557H92.0625V47.6992H93.5717V51.8833L95.6679 47.6992H97.764Z" style="fill: rgb(66, 111, 255);" transform="matrix(1, 0, 0, 1, 2.842170943040401e-14, 1.4210854715202004e-14)"/>
  <path d="M99.0213 50.6276C99.0213 48.8703 100.111 47.5314 101.788 47.615C103.465 47.615 104.471 48.8703 104.471 50.6276C104.471 50.7113 104.471 50.9623 104.471 51.2134H100.531C100.614 51.9665 101.201 52.5523 101.872 52.5523H101.956C102.543 52.5523 102.878 52.2176 102.962 51.7991H104.471C104.22 52.9707 103.214 53.8075 101.788 53.8075C100.279 53.7238 98.9375 52.5523 99.0213 50.6276ZM102.962 49.9581C102.962 49.2887 102.375 48.8703 101.788 48.8703H101.704C101.034 48.8703 100.531 49.2887 100.531 49.9581H102.962Z" style="fill: rgb(66, 111, 255);" transform="matrix(1, 0, 0, 1, 2.842170943040401e-14, 1.4210854715202004e-14)"/>
</svg>