<svg viewBox="0 0 48 48" fill="none" xmlns="http://www.w3.org/2000/svg">
<path d="M30.9231 32.3077L15.6925 17.0769C15.3103 16.6948 15.3103 16.0745 15.6925 15.6923C16.0746 15.3102 16.6949 15.3102 17.0771 15.6923L32.3077 30.9231C32.6899 31.3052 32.6899 31.9255 32.3077 32.3077C31.9256 32.6898 31.3053 32.6898 30.9231 32.3077Z" fill="currentColor"/>
<path d="M32.3076 17.0768L17.0769 32.3075C16.6948 32.6897 16.0745 32.6897 15.6923 32.3075C15.3102 31.9254 15.3101 31.3051 15.6923 30.9229L30.9229 15.6922C31.3051 15.31 31.9254 15.31 32.3075 15.6922C32.6897 16.0743 32.6897 16.6946 32.3076 17.0768Z" fill="currentColor"/>
</svg>
